# xmcd
#
# Track frame offsets:
#	150
#	20219
#	40065
#	58722
#	75085
#	96065
#	117719
#	139832
#	157031
#	177539
#	198437
#
# Disc length: 2951 seconds
#
# Revision: 0
# Processed by: cddbd v1.4PL0 Copyright (c) Steve Scherf et al.
# Submitted via: dBpowerAMP V4.0
#
DISCID=960b850b
DTITLE=Madonna - American Life
DYEAR=1900
DGENRE=Pop
TTITLE0=American Life
TTITLE1=Hollywood
TTITLE2=I'm So Stupid
TTITLE3=Love Profusion
TTITLE4=Nobody Knows Me
TTITLE5=Nothing Fails
TTITLE6=Intervention
TTITLE7=X-Static Process
TTITLE8=Mother And Fasther
TTITLE9=Die Another Day
TTITLE10=Easy Ride
EXTD=
EXTT0=
EXTT1=
EXTT2=
EXTT3=
EXTT4=
EXTT5=
EXTT6=
EXTT7=
EXTT8=
EXTT9=
EXTT10=
PLAYORDER=
